<svg width="65" height="79" viewBox="0 0 65 79" fill="none" xmlns="http://www.w3.org/2000/svg">
<g clip-path="url(#clip0_314_14)">
<g filter="url(#filter0_d_314_14)">
<path d="M51.7911 25.4277H38.8829L50.4904 10.7617C50.7306 10.4512 50.5138 10 50.1212 10H27.6505C27.4865 10 27.3283 10.0879 27.2462 10.2344L12.0646 36.4551C11.8829 36.7656 12.1056 37.1582 12.4689 37.1582H22.6876L17.4493 58.1113C17.338 58.5684 17.8888 58.8906 18.2286 58.5625L52.1134 26.2305C52.4181 25.9434 52.213 25.4277 51.7911 25.4277Z" fill="#16A34A"/>
</g>
</g>
<path d="M5.26278 78.206C4.12169 78.206 3.17472 77.9811 2.42188 77.5312C1.67377 77.0767 1.1482 76.4304 0.84517 75.5923C0.54214 74.7495 0.487689 73.7481 0.681818 72.5881C0.871212 71.4612 1.2571 70.4763 1.83949 69.6335C2.42661 68.786 3.16525 68.1278 4.0554 67.6591C4.94555 67.1856 5.9375 66.9489 7.03125 66.9489C7.80777 66.9489 8.49669 67.0696 9.09801 67.3111C9.69934 67.5526 10.1965 67.9124 10.5895 68.3906C10.9825 68.8641 11.25 69.4465 11.392 70.1378C11.5341 70.8291 11.5294 71.6222 11.3778 72.517L11.2429 73.3835H1.76847L2.08807 71.3665H8.33807C8.39489 70.9972 8.36411 70.6681 8.24574 70.3793C8.12737 70.0904 7.93561 69.8655 7.67045 69.7045C7.41004 69.5388 7.09044 69.456 6.71165 69.456C6.32813 69.456 5.96828 69.5459 5.6321 69.7259C5.30066 69.901 5.01894 70.1378 4.78693 70.4361C4.55492 70.7344 4.40341 71.0705 4.33239 71.4446L3.95597 73.5114C3.88021 73.9706 3.90152 74.3636 4.01989 74.6903C4.13826 75.017 4.34186 75.268 4.63068 75.4432C4.91951 75.6136 5.29119 75.6989 5.74574 75.6989C6.04877 75.6989 6.33286 75.6586 6.59801 75.5781C6.86316 75.4929 7.09991 75.3674 7.30824 75.2017C7.52131 75.0312 7.69413 74.8253 7.8267 74.5838L10.9943 74.6761C10.7386 75.3911 10.3433 76.0137 9.80824 76.544C9.2732 77.0696 8.61979 77.4792 7.84801 77.7727C7.08097 78.0616 6.21922 78.206 5.26278 78.206ZM24.3501 67.0909L18.7891 78H14.8118L12.8942 67.0909H16.424L17.1911 74.6051H17.3047L20.5646 67.0909H24.3501ZM28.5973 78.206C27.4467 78.206 26.4974 77.9692 25.7493 77.4957C25.0059 77.0223 24.4827 76.3617 24.1797 75.5142C23.8767 74.6667 23.8175 73.6818 24.0021 72.5597C24.1868 71.4422 24.5679 70.4621 25.1456 69.6193C25.7232 68.7765 26.4619 68.1207 27.3615 67.652C28.2611 67.1832 29.2815 66.9489 30.4226 66.9489C31.5684 66.9489 32.513 67.1856 33.2564 67.6591C34.0045 68.1326 34.5301 68.7931 34.8331 69.6406C35.1409 70.4882 35.2024 71.4754 35.0178 72.6023C34.8331 73.7197 34.4496 74.6998 33.8672 75.5426C33.2848 76.3807 32.5462 77.0341 31.6513 77.5028C30.7564 77.9716 29.7384 78.206 28.5973 78.206ZM28.9879 75.5852C29.4141 75.5852 29.7952 75.4574 30.1314 75.2017C30.4723 74.946 30.7588 74.5885 30.9908 74.1293C31.2228 73.67 31.3885 73.1373 31.4879 72.5312C31.5874 71.9347 31.5968 71.4115 31.5163 70.9616C31.4406 70.5071 31.2796 70.1544 31.0334 69.9034C30.7872 69.6477 30.4534 69.5199 30.032 69.5199C29.6058 69.5199 29.2223 69.6501 28.8814 69.9105C28.5405 70.1662 28.254 70.5237 28.022 70.983C27.7947 71.4375 27.6314 71.9702 27.532 72.581C27.4325 73.1776 27.4207 73.7008 27.4964 74.1506C27.5722 74.6004 27.7356 74.9531 27.9865 75.2088C28.2375 75.4598 28.5713 75.5852 28.9879 75.5852ZM41.7827 63.4545L39.3679 78H35.8949L38.3097 63.4545H41.7827ZM53.979 67.0909L48.418 78H44.4407L42.5231 67.0909H46.0529L46.82 74.6051H46.9336L50.1935 67.0909H53.979ZM58.212 78.206C57.0709 78.206 56.1239 77.9811 55.3711 77.5312C54.623 77.0767 54.0974 76.4304 53.7944 75.5923C53.4914 74.7495 53.4369 73.7481 53.631 72.5881C53.8204 71.4612 54.2063 70.4763 54.7887 69.6335C55.3758 68.786 56.1145 68.1278 57.0046 67.6591C57.8948 67.1856 58.8867 66.9489 59.9805 66.9489C60.757 66.9489 61.4459 67.0696 62.0472 67.3111C62.6486 67.5526 63.1457 67.9124 63.5387 68.3906C63.9317 68.8641 64.1992 69.4465 64.3413 70.1378C64.4833 70.8291 64.4786 71.6222 64.3271 72.517L64.1921 73.3835H54.7177L55.0373 71.3665H61.2873C61.3441 70.9972 61.3133 70.6681 61.195 70.3793C61.0766 70.0904 60.8848 69.8655 60.6197 69.7045C60.3593 69.5388 60.0397 69.456 59.6609 69.456C59.2773 69.456 58.9175 69.5459 58.5813 69.7259C58.2499 69.901 57.9682 70.1378 57.7362 70.4361C57.5041 70.7344 57.3526 71.0705 57.2816 71.4446L56.9052 73.5114C56.8294 73.9706 56.8507 74.3636 56.9691 74.6903C57.0875 75.017 57.2911 75.268 57.5799 75.4432C57.8687 75.6136 58.2404 75.6989 58.695 75.6989C58.998 75.6989 59.2821 75.6586 59.5472 75.5781C59.8124 75.4929 60.0491 75.3674 60.2575 75.2017C60.4705 75.0312 60.6433 74.8253 60.7759 74.5838L63.9435 74.6761C63.6879 75.3911 63.2925 76.0137 62.7575 76.544C62.2224 77.0696 61.569 77.4792 60.7972 77.7727C60.0302 78.0616 59.1684 78.206 58.212 78.206Z" fill="#16A34A"/>
<defs>
<filter id="filter0_d_314_14" x="8" y="10" width="48.2578" height="56.6953" filterUnits="userSpaceOnUse" color-interpolation-filters="sRGB">
<feFlood flood-opacity="0" result="BackgroundImageFix"/>
<feColorMatrix in="SourceAlpha" type="matrix" values="0 0 0 0 0 0 0 0 0 0 0 0 0 0 0 0 0 0 127 0" result="hardAlpha"/>
<feOffset dy="4"/>
<feGaussianBlur stdDeviation="2"/>
<feComposite in2="hardAlpha" operator="out"/>
<feColorMatrix type="matrix" values="0 0 0 0 0 0 0 0 0 0 0 0 0 0 0 0 0 0 0.25 0"/>
<feBlend mode="normal" in2="BackgroundImageFix" result="effect1_dropShadow_314_14"/>
<feBlend mode="normal" in="SourceGraphic" in2="effect1_dropShadow_314_14" result="shape"/>
</filter>
<clipPath id="clip0_314_14">
<rect width="60" height="60" fill="white" transform="translate(2 -1)"/>
</clipPath>
</defs>
</svg>
