<svg width="45" height="45" viewBox="0 0 45 45" fill="none" xmlns="http://www.w3.org/2000/svg">
<g clip-path="url(#clip0_321_34)">
<path fill-rule="evenodd" clip-rule="evenodd" d="M22.5 4.5C19.3517 4.49942 16.2583 5.32459 13.5286 6.89316C10.7989 8.46172 8.52834 10.7188 6.94355 13.4391C5.35877 16.1595 4.51519 19.2479 4.49702 22.3961C4.47885 25.5443 5.28673 28.6423 6.84002 31.3807C7.88989 30.0163 9.23948 28.9115 10.7845 28.1519C12.3294 27.3923 14.0284 26.9982 15.75 27H29.25C30.9716 26.9982 32.6706 27.3923 34.2155 28.1519C35.7605 28.9115 37.1101 30.0163 38.16 31.3807C39.7133 28.6423 40.5211 25.5443 40.503 22.3961C40.4848 19.2479 39.6412 16.1595 38.0564 13.4391C36.4717 10.7188 34.2011 8.46172 31.4714 6.89316C28.7417 5.32459 25.6483 4.49942 22.5 4.5ZM40.3717 36.171C43.38 32.2491 45.0072 27.4427 45 22.5C45 10.0732 34.9267 0 22.5 0C10.0733 0 2.53198e-05 10.0732 2.53198e-05 22.5C-0.00740291 27.4427 1.61981 32.2492 4.62827 36.171L4.61702 36.2115L5.41577 37.1407C7.52601 39.6079 10.1461 41.5881 13.0955 42.9449C16.0449 44.3017 19.2535 45.0028 22.5 45C27.0615 45.0084 31.5166 43.6228 35.2687 41.0287C36.8683 39.9235 38.3188 38.6168 39.5842 37.1407L40.383 36.2115L40.3717 36.171ZM22.5 8.99999C20.7098 8.99999 18.9929 9.71115 17.727 10.977C16.4612 12.2429 15.75 13.9598 15.75 15.75C15.75 17.5402 16.4612 19.2571 17.727 20.523C18.9929 21.7888 20.7098 22.5 22.5 22.5C24.2902 22.5 26.0071 21.7888 27.273 20.523C28.5388 19.2571 29.25 17.5402 29.25 15.75C29.25 13.9598 28.5388 12.2429 27.273 10.977C26.0071 9.71115 24.2902 8.99999 22.5 8.99999Z" fill="#16A34A"/>
</g>
<defs>
<clipPath id="clip0_321_34">
<rect width="45" height="45" fill="white"/>
</clipPath>
</defs>
</svg>
